Coordinates
version=1
nRows=19
nColumns=36
inDegrees=yes

Units are S.I. units (second, meters, Newtons, ...)
If the header above contains a line with 'inDegrees', this indicates whether rotational values are in degrees (yes) or radians (no).

endheader
time	pelvis_tilt	pelvis_list	pelvis_rotation	pelvis_tx	pelvis_ty	pelvis_tz	hip_flexion_r	hip_adduction_r	hip_rotation_r	knee_angle_r	knee_angle_r_beta	ankle_angle_r	subtalar_angle_r	mtp_angle_r	hip_flexion_l	hip_adduction_l	hip_rotation_l	knee_angle_l	knee_angle_l_beta	ankle_angle_l	subtalar_angle_l	mtp_angle_l	lumbar_extension	lumbar_bending	lumbar_rotation	arm_flex_r	arm_add_r	arm_rot_r	elbow_flex_r	pro_sup_r	arm_flex_l	arm_add_l	arm_rot_l	elbow_flex_l	pro_sup_l
      0.33000000	      2.05430759	     -3.76149040	      0.24112999	      0.34320538	      0.96826973	     -0.14458868	     -4.34191424	     10.11177051	     12.50518757	      7.96397397	      0.13899757	     11.15362908	     -6.42435588	     -7.05221183	     26.88497513	     -4.16124645	      3.29654137	     52.17093745	      0.91055463	      1.39349341	    -11.04181207	     -7.05221183	     -5.87875594	      1.14103700	      2.14674497	      3.85671229	     -8.70477773	      6.01122291	     31.20624209	    110.27292877	      2.25609025	    -12.42213591	     27.62482165	     30.00117934	    110.85072022
      0.34000000	      1.90976857	     -3.63140742	     -0.30338916	      0.35429288	      0.96779240	     -0.14419060	     -5.26073403	      9.86705743	     13.05446733	      7.42418913	      0.12957654	     11.46806033	     -6.16053756	     -7.05627416	     27.32196374	     -3.97863041	      3.23010178	     48.87201663	      0.85297760	      1.30268343	    -10.47728355	     -7.05627416	     -5.69407308	      1.04598816	      2.89508830	      4.45340679	     -8.69893329	      6.19180099	     31.91049717	    110.39707745	      1.75713281	    -12.35097168	     27.62585793	     29.64147801	    110.79441569
      0.35000000	      1.80018922	     -3.54975548	     -0.83998767	      0.36542134	      0.96715024	     -0.14385735	     -6.22789605	      9.64946733	     13.58765122	      6.85972316	      0.11972475	     11.83870548	     -5.86914562	     -7.06018661	     27.59522419	     -3.87088644	      3.20762917	     45.32347421	      0.79104385	      1.13097967	     -9.79035075	     -7.06018661	     -5.59678921	      1.00327890	      3.68343645	      5.03696714	     -8.73009461	      6.43039119	     32.61464072	    110.52684724	      1.29506067	    -12.23801567	     27.58067213	     29.24355525	    110.72745021
      0.36000000	      1.73810295	     -3.47997748	     -1.36733092	      0.37659204	      0.96637085	     -0.14353854	     -7.26459962	      9.42073558	     14.07033096	      6.24927766	      0.10907047	     12.26118022	     -5.50428718	     -7.06480080	     27.69214315	     -3.80849888	      3.19111135	     41.55362727	      0.72524761	      0.87976619	     -8.95727480	     -7.06480080	     -5.55656453	      0.98235129	      4.50017019	      5.63498255	     -8.77738181	      6.74459500	     33.33684854	    110.67716198	      0.89928158	    -12.09392761	     27.48940842	     28.77741881	    110.64176833
      0.37000000	      1.70619667	     -3.48463174	     -1.83699471	      0.38784936	      0.96542278	     -0.14339142	     -8.34032838	      9.24829228	     14.40096750	      5.63380642	      0.09832847	     12.73388417	     -5.02249408	     -7.07090418	     27.65539508	     -3.83971486	      3.17075125	     37.58457093	      0.65597451	      0.61206329	     -7.97256187	     -7.07090418	     -5.54881532	      1.05420800	      5.27362117	      6.21528543	     -8.87577321	      7.12358463	     34.00853372	    110.85052646	      0.52698662	    -11.88640040	     27.38145648	     28.24959986	    110.53775958
      0.38000000	      1.47070276	     -3.57129435	     -2.25892477	      0.39904788	      0.96395994	     -0.14337529	     -9.12959864	      9.16737550	     14.61847578	      5.12385951	      0.08942822	     13.10048437	     -4.52222848	     -7.07585146	     27.79028568	     -3.91769330	      3.36604271	     33.54380870	      0.58544991	      0.46300011	     -6.87836784	     -7.07585146	     -5.30455355	      1.23738713	      5.93638768	      6.82252081	     -8.92426942	      7.44869598	     34.60815534	    110.99062441	      0.07519025	    -11.69263484	     27.30927224	     27.76597837	    110.45273380
      0.39000000	      1.42627178	     -3.64959025	     -2.67814611	      0.41039211	      0.96266374	     -0.14339512	    -10.15381532	      9.03183891	     14.65768209	      4.57846335	      0.07990926	     13.66191130	     -3.64670167	     -7.08462918	     27.56082115	     -4.06553348	      3.36689105	     29.28995392	      0.51120613	      0.38211237	     -5.33916383	     -7.08462918	     -5.31539936	      1.41541029	      6.62084214	      7.45465210	     -9.02850977	      7.94556616	     35.16962800	    111.18476696	     -0.29419573	    -11.43347032	     27.22404560	     27.10943757	    110.32149795
      0.40000000	      1.22426183	     -3.77063642	     -3.06132499	      0.42172919	      0.96094871	     -0.14349077	    -10.94917867	      8.95329753	     14.57938392	      4.14043208	      0.07226417	     14.19399545	     -2.69916887	     -7.09379201	     27.46460607	     -4.25084365	      3.44857983	     25.05230520	      0.43724521	      0.49335464	     -3.52111257	     -7.09379201	     -5.13444775	      1.63465137	      7.23922828	      8.08252549	     -9.08390229	      8.40122178	     35.66411561	    111.35128162	     -0.70543349	    -11.20277251	     27.20827948	     26.50128374	    110.20009696
      0.41000000	      0.73436380	     -3.96845917	     -3.43584316	      0.43307093	      0.95865990	     -0.14370620	    -11.36318088	      8.98074470	     14.67886488	      3.85033390	      0.06720100	     14.43808816	     -2.16535671	     -7.09722340	     27.66368422	     -4.49231543	      3.78337528	     20.96382088	      0.36588770	      0.68066721	     -1.97384646	     -7.09722340	     -4.60176097	      1.98599191	      7.79615495	      8.63582695	     -9.11310417	      8.63513056	     36.13207247	    111.43237860	     -1.28188920	    -10.99997179	     27.22685759	     26.07053815	    110.14284339
      0.42000000	      0.74697399	     -4.08949976	     -3.80975482	      0.44467202	      0.95698545	     -0.14386294	    -12.32173050	      8.84714119	     13.98886805	      3.56685802	      0.06225342	     15.51141299	     -0.06113212	     -7.11823335	     27.30748527	     -4.83682621	      2.99967366	     17.08650898	      0.29821584	      1.63284774	      1.74099512	     -7.11823335	     -4.67471120	      2.18571830	      8.43474132	      9.31141074	     -9.23989989	      9.40602459	     36.49957014	    111.63315651	     -1.54638892	    -10.77830662	     27.53794704	     25.25578325	    109.94291898
      0.43000000	      0.58016100	     -4.22688343	     -4.17834999	      0.45621390	      0.95494508	     -0.14416226	    -13.08534477	      8.75687027	     13.88930774	      3.28534154	      0.05734003	     15.96280705	      0.62452942	     -7.12636702	     27.11633331	     -5.07345726	      2.72953538	     13.43423015	      0.23447155	      1.86340475	      4.11918019	     -7.12636702	     -4.55970788	      2.42699105	      9.08210686	      9.86473652	     -9.30273797	      9.73686840	     36.92905433	    111.70506079	     -1.89389221	    -10.51590351	     27.60459912	     24.64915991	    109.84412862
      0.44000000	      0.45285161	     -4.32664981	     -4.61755401	      0.46788875	      0.95287392	     -0.14432815	    -13.81594613	      8.60753710	     13.66423917	      3.17137436	      0.05535092	     16.54466984	      1.78620419	     -7.13773613	     26.97655318	     -5.35711932	      1.85239537	     10.38312216	      0.18121967	      2.68336929	      7.44888004	     -7.13773613	     -4.48538903	      2.60556004	      9.72255222	     10.46878400	     -9.34647596	     10.22255870	     37.33288461	    111.77001903	     -2.24715160	    -10.29537285	     27.87952348	     23.98620458	    109.75528695
      0.45000000	      0.23308543	     -4.41907527	     -5.09515899	      0.47967552	      0.95061525	     -0.14451648	    -14.35134710	      8.44317150	     13.33431348	      3.24104914	      0.05656698	     17.17697112	      3.09093287	     -7.15480310	     27.07808011	     -5.63113922	      0.75902689	      8.09749811	      0.14132800	      3.78527808	     10.90395509	     -7.15480310	     -4.26679453	      2.78793334	     10.42955513	     11.00704063	     -9.39409127	     10.69879464	     37.58547596	    111.77855061	     -2.61243473	    -10.14023137	     28.36981374	     23.43326320	    109.68061016
      0.46000000	     -0.03446644	     -4.48084071	     -5.55832731	      0.49141949	      0.94824605	     -0.14477496	    -14.80791866	      8.27397351	     13.46156655	      3.36719072	      0.05876856	     17.44762945	      3.37905776	     -7.15828846	     27.16064480	     -5.74420282	      0.85876181	      6.20598473	      0.10831487	      4.20664781	     12.10274053	     -7.15828846	     -4.03672211	      2.92184253	     11.08638672	     11.51698719	     -9.33674342	     10.88555003	     37.86135491	    111.79704746	     -3.04832765	     -9.96952396	     28.46396912	     23.07957661	    109.65389052
      0.47000000	      0.01404467	     -4.42106267	     -6.09068304	      0.50334821	      0.94636000	     -0.14488943	    -15.54127580	      7.90106942	     13.22587643	      3.58759872	      0.06261541	     18.15737032	      4.52510678	     -7.17201746	     27.06577615	     -5.83525395	     -0.29154721	      5.23426907	      0.09135523	      5.12592945	     14.65118051	     -7.17201746	     -4.17321028	      2.85221878	     11.79120462	     12.17469480	     -9.35795722	     11.55197058	     38.03144948	    111.78325459	     -3.27085260	     -9.81017147	     29.00413492	     22.38750013	    109.63561586
      0.48000000	     -0.16083645	     -4.36682904	     -6.62170491	      0.51530614	      0.94419387	     -0.14500679	    -15.94694833	      7.59065325	     13.37135324	      3.97107714	      0.06930837	     18.29847958	      4.67224418	     -7.17433090	     27.16794042	     -5.85283720	     -0.23638531	      4.77263330	      0.08329817	      5.59109497	     14.84555211	     -7.17433090	     -4.04463435	      2.80503923	     12.47358069	     12.70422454	     -9.21640661	     11.65484363	     38.15047537	    111.78116572	     -3.70079601	     -9.71041469	     29.12374396	     22.20219669	    109.63550892
      0.49000000	     -0.27907506	     -4.30007700	     -7.04745111	      0.52754481	      0.94216657	     -0.14522551	    -16.46875452	      7.27378450	     13.36788781	      4.19893104	      0.07328517	     18.32288509	      4.69204643	     -7.17478356	     27.25897763	     -5.81842772	     -0.08415614	      4.92102970	      0.08588817	      5.65930486	     14.86096365	     -7.17478356	     -3.95186680	      2.73291225	     13.02094177	     13.19115184	     -9.05248563	     11.69306431	     38.31437169	    111.78886210	     -4.17262434	     -9.63832573	     29.19060639	     22.05165632	    109.63638605
      0.50000000	     -0.20785436	     -3.98499554	     -7.72447521	      0.53973738	      0.94059573	     -0.14503264	    -16.87663273	      6.64741438	     13.77822863	      5.08794093	      0.08880132	     18.67491867	      4.88488883	     -7.17732392	     27.08975817	     -5.61831970	     -0.45996108	      5.56263704	      0.09708633	      6.37397652	     14.10366731	     -7.17732392	     -4.13073843	      2.25789218	     13.82137453	     13.83045988	     -8.81247720	     11.96157095	     38.19638406	    111.78125501	     -4.44548370	     -9.60780963	     29.39605835	     21.79686519	    109.65780237
      0.51000000	     -0.28176983	     -3.70121848	     -8.24874887	      0.55227914	      0.93888816	     -0.14508029	    -17.14654951	      6.09744825	     13.81297138	      5.90711645	      0.10309863	     19.29698263	      5.36735105	     -7.18573106	     27.09271533	     -5.36027508	     -0.40065390	      6.53103199	      0.11398801	      6.49907759	     12.60714844	     -7.18573106	     -4.01122956	      1.87295449	     14.32758082	     14.52186882	     -8.61516999	     12.62669662	     37.78801102	    111.72405290	     -4.84627088	     -9.69316287	     30.09352455	     21.45294861	    109.77718802
